<?xml version="1.0" standalone="no"?>
<!DOCTYPE svg PUBLIC "-//W3C//DTD SVG 20010904//EN"
 "http://www.w3.org/TR/2001/REC-SVG-20010904/DTD/svg10.dtd">
<svg version="1.0" xmlns="http://www.w3.org/2000/svg"
 width="260.000000pt" height="260.000000pt" viewBox="0 0 260.000000 260.000000"
 preserveAspectRatio="xMidYMid meet">
<metadata>
Created by potrace 1.11, written by Peter Selinger 2001-2013
</metadata>
<g transform="translate(0.000000,260.000000) scale(0.100000,-0.100000)"
fill="#000000" stroke="none">
<path d="M1470 2550 c-13 -8 -12 -10 3 -10 9 0 17 5 17 10 0 12 -1 12 -20 0z"/>
<path d="M1625 2540 c3 -5 8 -10 11 -10 2 0 4 5 4 10 0 6 -5 10 -11 10 -5 0
-7 -4 -4 -10z"/>
<path d="M1678 2508 c5 -5 16 -8 23 -6 8 3 3 7 -10 11 -17 4 -21 3 -13 -5z"/>
<path d="M1720 2496 c0 -2 7 -6 15 -10 8 -3 15 -1 15 4 0 6 -7 10 -15 10 -8 0
-15 -2 -15 -4z"/>
<path d="M1785 2480 c3 -5 8 -10 11 -10 2 0 4 5 4 10 0 6 -5 10 -11 10 -5 0
-7 -4 -4 -10z"/>
<path d="M1405 2459 c-4 -6 -5 -12 -2 -15 2 -3 7 2 10 11 7 17 1 20 -8 4z"/>
<path d="M1818 2463 c7 -3 16 -2 19 1 4 3 -2 6 -13 5 -11 0 -14 -3 -6 -6z"/>
<path d="M1885 2445 c17 -7 32 -11 35 -9 7 8 -24 24 -45 23 -15 0 -13 -4 10
-14z"/>
<path d="M1953 2430 c2 -8 12 -16 23 -17 13 -2 15 -1 4 4 -8 3 -19 11 -23 17
-6 7 -7 6 -4 -4z"/>
<path d="M1544 2388 c-11 -13 -46 -58 -77 -100 -76 -102 -161 -188 -222 -224
-41 -23 -66 -30 -140 -36 -85 -7 -91 -9 -118 -40 -51 -61 -84 -112 -146 -233
-35 -66 -77 -140 -95 -165 -18 -25 -35 -63 -39 -85 -3 -23 -51 -126 -112 -240
-169 -317 -347 -685 -353 -727 -2 -22 -11 -42 -18 -45 -21 -8 -17 -32 10 -64
14 -16 30 -54 37 -84 12 -56 18 -64 101 -136 62 -53 96 -62 183 -46 59 11 72
17 83 39 8 17 29 33 56 43 64 25 86 52 96 123 13 97 77 261 117 303 30 32 33
40 23 58 -10 19 -8 23 22 35 24 10 35 23 43 51 13 49 28 46 36 -5 3 -22 15
-53 27 -68 12 -15 31 -43 42 -64 l19 -36 87 -7 c107 -9 181 -2 356 35 98 21
151 28 183 23 l46 -6 -6 -41 c-3 -23 -11 -51 -17 -63 -14 -28 -77 -59 -157
-77 -35 -8 -69 -20 -75 -26 -7 -7 12 -33 68 -89 77 -77 77 -78 74 -125 l-3
-48 87 -45 87 -46 67 11 c131 22 250 101 338 226 71 99 89 152 83 238 -3 40
-10 98 -16 128 -24 118 -27 106 42 142 74 39 184 145 215 208 l22 45 -32 15
c-18 8 -53 30 -77 48 -24 17 -55 32 -68 32 -27 0 -73 41 -73 66 0 14 -8 16
-52 11 -29 -4 -67 -9 -84 -13 -30 -6 -32 -4 -47 38 -31 86 -47 147 -61 229 -8
46 -24 127 -36 179 -12 52 -25 138 -31 190 -5 52 -14 118 -19 145 -6 28 -15
76 -21 107 -18 92 -74 126 -294 179 -27 6 -69 22 -92 35 -23 13 -43 24 -46 24
-2 0 -12 -10 -23 -22z m26 -983 c23 -93 44 -181 47 -194 2 -14 6 -28 9 -32 5
-10 -22 -15 -186 -34 -68 -8 -160 -15 -204 -15 -75 0 -78 1 -64 18 9 9 46 62
83 117 105 155 253 332 266 317 4 -4 26 -83 49 -177z"/>
<path d="M2062 2358 c7 -7 22 -20 33 -28 15 -10 14 -7 -4 13 -14 15 -29 27
-33 27 -5 0 -3 -6 4 -12z"/>
<path d="M1290 2309 c0 -5 5 -7 10 -4 6 3 10 8 10 11 0 2 -4 4 -10 4 -5 0 -10
-5 -10 -11z"/>
<path d="M2110 2295 c0 -8 7 -15 16 -15 14 0 14 3 4 15 -7 8 -14 15 -16 15 -2
0 -4 -7 -4 -15z"/>
<path d="M2130 2241 c0 -11 5 -23 10 -26 6 -4 10 5 10 19 0 14 -4 26 -10 26
-5 0 -10 -9 -10 -19z"/>
<path d="M2152 2170 c0 -19 2 -27 5 -17 2 9 2 25 0 35 -3 9 -5 1 -5 -18z"/>
<path d="M968 2173 c12 -2 30 -2 40 0 9 3 -1 5 -23 4 -22 0 -30 -2 -17 -4z"/>
<path d="M1040 2172 c0 -4 19 -6 43 -4 70 5 76 10 15 11 -32 0 -58 -2 -58 -7z"/>
<path d="M910 2145 c-8 -9 -8 -15 -2 -15 12 0 26 19 19 26 -2 2 -10 -2 -17
-11z"/>
<path d="M2160 2096 c0 -31 6 -34 13 -6 3 11 1 23 -4 26 -5 3 -9 -6 -9 -20z"/>
<path d="M880 2099 c0 -5 5 -7 10 -4 6 3 10 8 10 11 0 2 -4 4 -10 4 -5 0 -10
-5 -10 -11z"/>
<path d="M840 2049 c0 -5 5 -7 10 -4 6 3 10 8 10 11 0 2 -4 4 -10 4 -5 0 -10
-5 -10 -11z"/>
<path d="M2182 2020 c0 -14 2 -19 5 -12 2 6 2 18 0 25 -3 6 -5 1 -5 -13z"/>
<path d="M807 2013 c-4 -3 -7 -11 -7 -17 0 -6 5 -5 12 2 6 6 9 14 7 17 -3 3
-9 2 -12 -2z"/>
<path d="M756 1924 c-10 -25 1 -29 14 -5 6 12 7 21 1 21 -5 0 -12 -7 -15 -16z"/>
<path d="M2193 1885 c0 -27 2 -38 4 -22 2 15 2 37 0 50 -2 12 -4 0 -4 -28z"/>
<path d="M726 1874 c-9 -24 -2 -26 12 -4 7 11 8 20 3 20 -5 0 -12 -7 -15 -16z"/>
<path d="M695 1810 c-3 -5 -1 -10 4 -10 6 0 11 5 11 10 0 6 -2 10 -4 10 -3 0
-8 -4 -11 -10z"/>
<path d="M681 1774 c0 -11 3 -14 6 -6 3 7 2 16 -1 19 -3 4 -6 -2 -5 -13z"/>
<path d="M2210 1761 c0 -11 5 -23 10 -26 6 -4 10 5 10 19 0 14 -4 26 -10 26
-5 0 -10 -9 -10 -19z"/>
<path d="M2232 1685 c0 -16 2 -22 5 -12 2 9 2 23 0 30 -3 6 -5 -1 -5 -18z"/>
<path d="M595 1640 c-3 -5 -1 -10 4 -10 6 0 11 5 11 10 0 6 -2 10 -4 10 -3 0
-8 -4 -11 -10z"/>
<path d="M2238 1623 c5 -25 6 -25 13 -8 11 29 10 35 -5 35 -9 0 -12 -8 -8 -27z"/>
<path d="M2262 1550 c0 -14 2 -19 5 -12 2 6 2 18 0 25 -3 6 -5 1 -5 -13z"/>
<path d="M2272 1480 c0 -19 2 -27 5 -17 2 9 2 25 0 35 -3 9 -5 1 -5 -18z"/>
<path d="M2400 1450 c0 -5 10 -10 23 -10 13 0 28 -5 35 -12 9 -9 12 -8 12 4 0
9 -7 19 -16 22 -24 9 -54 7 -54 -4z"/>
<path d="M2305 1440 c3 -5 12 -7 20 -3 21 7 19 13 -6 13 -11 0 -18 -4 -14 -10z"/>
<path d="M2471 1394 c0 -11 3 -14 6 -6 3 7 2 16 -1 19 -3 4 -6 -2 -5 -13z"/>
<path d="M2480 1362 c0 -5 7 -13 16 -16 10 -4 14 -1 12 6 -5 15 -28 23 -28 10z"/>
<path d="M2540 1326 c0 -2 7 -7 16 -10 8 -3 12 -2 9 4 -6 10 -25 14 -25 6z"/>
<path d="M440 1298 c0 -9 -6 -19 -12 -21 -10 -4 -10 -6 0 -6 14 -1 28 26 18
36 -3 4 -6 -1 -6 -9z"/>
<path d="M396 1214 c-9 -24 -2 -26 12 -4 7 11 8 20 3 20 -5 0 -12 -7 -15 -16z"/>
<path d="M361 1150 c-5 -16 -8 -30 -6 -30 2 0 10 14 19 30 8 17 11 30 6 30 -4
0 -13 -13 -19 -30z"/>
<path d="M326 1084 c-10 -25 1 -29 14 -5 6 12 7 21 1 21 -5 0 -12 -7 -15 -16z"/>
<path d="M290 1019 c0 -5 5 -7 10 -4 6 3 10 8 10 11 0 2 -4 4 -10 4 -5 0 -10
-5 -10 -11z"/>
<path d="M276 984 c-4 -9 -4 -19 -1 -22 2 -3 7 3 11 12 4 9 4 19 1 22 -2 3 -7
-3 -11 -12z"/>
<path d="M200 828 c0 -9 -6 -19 -12 -21 -10 -4 -10 -6 0 -6 14 -1 28 26 18 36
-3 4 -6 -1 -6 -9z"/>
<path d="M170 779 c0 -5 5 -7 10 -4 6 3 10 8 10 11 0 2 -4 4 -10 4 -5 0 -10
-5 -10 -11z"/>
<path d="M130 689 c0 -5 5 -7 10 -4 6 3 10 8 10 11 0 2 -4 4 -10 4 -5 0 -10
-5 -10 -11z"/>
<path d="M90 599 c0 -5 5 -7 10 -4 6 3 10 8 10 11 0 2 -4 4 -10 4 -5 0 -10 -5
-10 -11z"/>
<path d="M50 555 c-19 -23 -8 -26 20 -5 19 15 21 20 9 20 -9 0 -22 -7 -29 -15z"/>
<path d="M1080 500 c0 -5 9 -10 21 -10 11 0 17 5 14 10 -3 6 -13 10 -21 10 -8
0 -14 -4 -14 -10z"/>
<path d="M975 490 c-3 -5 -1 -10 4 -10 6 0 11 5 11 10 0 6 -2 10 -4 10 -3 0
-8 -4 -11 -10z"/>
<path d="M1200 490 c0 -6 26 -10 57 -10 68 0 67 5 -4 13 -31 4 -53 2 -53 -3z"/>
<path d="M1320 482 c0 -5 12 -19 27 -33 l26 -24 -23 33 c-25 33 -30 38 -30 24z"/>
<path d="M956 444 c-9 -35 -4 -39 11 -8 6 13 8 26 3 29 -4 3 -11 -7 -14 -21z"/>
<path d="M0 452 c0 -5 27 -32 59 -61 33 -28 62 -62 64 -74 4 -20 4 -20 5 -2 1
12 -23 46 -58 83 -60 61 -70 70 -70 54z"/>
<path d="M937 383 c-11 -10 -8 -43 3 -43 6 0 10 11 10 25 0 26 -2 29 -13 18z"/>
<path d="M1415 370 c3 -5 11 -10 16 -10 6 0 7 5 4 10 -3 6 -11 10 -16 10 -6 0
-7 -4 -4 -10z"/>
<path d="M1480 303 c0 -13 29 -38 35 -31 3 3 -4 13 -15 23 -11 10 -20 13 -20
8z"/>
<path d="M2387 303 c-4 -3 -7 -11 -7 -17 0 -6 5 -5 12 2 6 6 9 14 7 17 -3 3
-9 2 -12 -2z"/>
<path d="M906 255 c-3 -8 -1 -15 4 -15 6 0 10 7 10 15 0 8 -2 15 -4 15 -2 0
-6 -7 -10 -15z"/>
<path d="M2350 249 c0 -5 5 -7 10 -4 6 3 10 8 10 11 0 2 -4 4 -10 4 -5 0 -10
-5 -10 -11z"/>
<path d="M145 231 c-3 -5 -1 -12 5 -16 5 -3 10 1 10 9 0 18 -6 21 -15 7z"/>
<path d="M881 208 c-14 -23 -14 -23 8 -4 22 20 25 26 13 26 -4 0 -13 -10 -21
-22z"/>
<path d="M2280 175 c-24 -25 -40 -45 -34 -45 13 0 89 78 83 85 -3 2 -25 -16
-49 -40z"/>
<path d="M1490 189 c0 -5 5 -7 10 -4 6 3 10 8 10 11 0 2 -4 4 -10 4 -5 0 -10
-5 -10 -11z"/>
<path d="M801 144 c-19 -13 -40 -38 -45 -56 -7 -21 -20 -35 -36 -39 l-25 -7
27 -1 c26 -1 56 30 50 51 -3 12 31 48 45 48 12 0 28 18 22 25 -2 1 -19 -8 -38
-21z"/>
<path d="M1530 120 c0 -5 5 -10 11 -10 5 0 7 5 4 10 -3 6 -8 10 -11 10 -2 0
-4 -4 -4 -10z"/>
<path d="M310 65 c24 -24 46 -42 49 -39 5 5 -77 84 -87 84 -4 0 14 -20 38 -45z"/>
<path d="M2185 100 c-3 -5 -2 -10 4 -10 5 0 13 5 16 10 3 6 2 10 -4 10 -5 0
-13 -4 -16 -10z"/>
<path d="M2093 50 c-13 -5 -23 -15 -23 -22 0 -8 3 -9 8 -3 4 6 18 16 32 22 29
14 15 16 -17 3z"/>
<path d="M620 30 c0 -5 5 -10 10 -10 6 0 10 5 10 10 0 6 -4 10 -10 10 -5 0
-10 -4 -10 -10z"/>
<path d="M370 18 c0 -4 21 -8 48 -7 52 1 48 6 -10 11 -21 2 -38 0 -38 -4z"/>
<path d="M540 20 c-13 -8 -12 -10 3 -10 9 0 17 5 17 10 0 12 -1 12 -20 0z"/>
<path d="M1730 20 c0 -5 5 -10 11 -10 5 0 7 5 4 10 -3 6 -8 10 -11 10 -2 0 -4
-4 -4 -10z"/>
<path d="M2025 20 c-3 -5 -1 -10 4 -10 6 0 11 5 11 10 0 6 -2 10 -4 10 -3 0
-8 -4 -11 -10z"/>
<path d="M1760 10 c0 -6 7 -10 15 -10 8 0 15 2 15 4 0 2 -7 6 -15 10 -8 3 -15
1 -15 -4z"/>
</g>
</svg>
